<?xml version="1.0" encoding="utf-8"?>
<!-- Generator: Adobe Illustrator 16.0.0, SVG Export Plug-In . SVG Version: 6.00 Build 0)  -->
<!DOCTYPE svg PUBLIC "-//W3C//DTD SVG 1.1//EN" "http://www.w3.org/Graphics/SVG/1.1/DTD/svg11.dtd">
<svg version="1.1" id="Capa_1" xmlns="http://www.w3.org/2000/svg" xmlns:xlink="http://www.w3.org/1999/xlink" x="0px" y="0px"
	 width="554.625px" height="554.625px" viewBox="0 0 554.625 554.625" enable-background="new 0 0 554.625 554.625"
	 xml:space="preserve">
<g transform="matrix(1.61319 0 0 1.7559 142.74 150.3)">
	<path fill="#EE4A9A" d="M15.591,38.405c23.556-0.694,41.937-19.547,38.427-44.153c-1.675-11.723-10.946-25.461-17.076-36.05
		C29.646-54.402,22.3-64.899,15.595-75.011h-0.002C8.889-64.896,1.54-54.402-5.753-41.798c-6.131,10.589-15.401,24.323-17.078,36.05
		c-3.514,24.606,14.869,43.461,38.426,44.153"/>
</g>
<g>
	<g>
		<path fill="#FFFFFF" d="M458.473,258.178c-9.581,0-17.563,3.194-23.952,7.983l0,0c0-22.354-17.562-39.918-39.918-39.918
			c-9.581,0-19.16,3.193-27.144,9.581c-6.388-15.968-20.759-25.548-36.726-25.548c-9.581,0-17.564,3.194-23.952,7.983v-79.837
			c0-22.354-17.563-39.918-39.918-39.918s-39.918,17.564-39.918,39.918v142.11c-31.935-28.741-67.063-51.095-89.417-28.741
			c-31.935,31.936,35.128,94.207,86.224,188.417c36.726,65.465,87.822,89.417,138.917,89.417
			c75.047,0,135.723-60.676,135.723-135.723v-95.805C498.391,275.742,480.827,258.178,458.473,258.178z M482.423,333.226v60.676
			c0,62.274-54.288,119.757-119.756,119.757c-60.677,0-95.805-33.531-124.546-79.837
			c-60.676-105.386-105.385-153.288-89.417-170.853c17.563-17.564,60.676,20.758,94.208,55.887V138.421
			c0-12.773,11.177-23.951,23.952-23.951c12.773,0,23.952,11.178,23.952,23.951v167.658h15.967v-55.886
			c0-12.774,11.178-23.952,23.952-23.952s23.951,11.178,23.951,23.952v39.918h15.967V266.16c0-12.774,11.179-23.952,23.952-23.952
			c12.774,0,23.951,11.178,23.951,23.952v39.918h15.968v-7.983c0-12.774,11.178-23.952,23.952-23.952s23.951,11.178,23.951,23.952
			v35.131H482.423z"/>
	</g>
</g>
</svg>
