<?xml version="1.0" encoding="utf-8"?>
<!-- Generator: Adobe Illustrator 16.0.0, SVG Export Plug-In . SVG Version: 6.00 Build 0)  -->
<!DOCTYPE svg PUBLIC "-//W3C//DTD SVG 1.1//EN" "http://www.w3.org/Graphics/SVG/1.1/DTD/svg11.dtd">
<svg version="1.1" id="Capa_1" xmlns="http://www.w3.org/2000/svg" xmlns:xlink="http://www.w3.org/1999/xlink" x="0px" y="0px"
	 width="573.75px" height="573.75px" viewBox="0 0 573.75 573.75" enable-background="new 0 0 573.75 573.75" xml:space="preserve">
<g>
	<g>
		<path fill="#FFFFFF" d="M421.891,172.125c47.812,0,86.062-38.25,86.062-86.062S469.704,0,421.891,0
			c-47.812,0-86.062,38.25-86.062,86.062S374.079,172.125,421.891,172.125z M412.329,19.125v76.5h15.301h42.074V76.5h-38.25V19.125
			c32.513,3.825,57.375,32.513,57.375,66.938c0,36.337-30.601,66.938-66.938,66.938c-36.337,0-66.938-30.6-66.938-66.938
			C354.954,51.638,379.817,24.862,412.329,19.125z"/>
		<path fill="#FFFFFF" d="M460.141,248.625c-11.475,0-21.037,3.825-28.688,9.562c0-26.775-21.037-47.812-47.812-47.812
			c-11.475,0-22.948,3.825-32.512,11.475c-7.65-19.125-24.863-30.6-43.988-30.6c-11.475,0-21.037,3.825-28.688,9.562v-95.625
			c0-26.775-21.037-47.812-47.812-47.812s-47.812,21.038-47.812,47.812V275.4c-38.25-34.425-80.325-61.2-107.1-34.425
			c-38.25,38.25,42.075,112.837,103.275,225.675c43.988,78.412,105.188,107.1,166.387,107.1
			c89.889,0,162.562-72.675,162.562-162.562v-114.75C507.954,269.663,486.917,248.625,460.141,248.625z M488.829,338.514v72.674
			c0,74.589-65.024,143.438-143.438,143.438c-72.675,0-114.75-40.162-149.175-95.625c-72.675-126.226-126.225-183.6-107.1-204.638
			c21.037-21.037,72.675,24.863,112.837,66.938V105.188c0-15.3,13.387-28.688,28.688-28.688c15.3,0,28.688,13.388,28.688,28.688V306
			h19.125v-66.938c0-15.3,13.388-28.688,28.688-28.688c15.302,0,28.688,13.388,28.688,28.688v47.812h19.125v-28.688
			c0-15.3,13.388-28.688,28.688-28.688c15.302,0,28.688,13.388,28.688,28.688V306h19.125v-9.562
			c0-15.299,13.388-28.688,28.688-28.688c15.302,0,28.688,13.388,28.688,28.688v42.076H488.829z"/>
	</g>
</g>
</svg>
